<?xml version="1.0" standalone="no"?>
<!DOCTYPE svg PUBLIC "-//W3C//DTD SVG 20010904//EN"
 "http://www.w3.org/TR/2001/REC-SVG-20010904/DTD/svg10.dtd">
<svg version="1.0" xmlns="http://www.w3.org/2000/svg"
 width="512.000000pt" height="512.000000pt" viewBox="0 0 512.000000 512.000000"
 preserveAspectRatio="xMidYMid meet">
<metadata>
Created by potrace 1.11, written by Peter Selinger 2001-2013
</metadata>
<g transform="translate(0.000000,512.000000) scale(0.100000,-0.100000)"
fill="#000000" stroke="none">
<path d="M2877 5106 c-59 -21 -145 -93 -208 -175 l-26 -33 -51 26 c-216 109
-437 152 -607 116 -113 -23 -225 -97 -312 -208 l-18 -22 -85 18 c-90 19 -167
20 -239 2 -163 -40 -301 -200 -232 -269 11 -11 15 -24 11 -32 -4 -8 -14 -40
-21 -72 -9 -40 -16 -56 -26 -53 -7 3 -25 -5 -40 -18 l-28 -24 0 -159 c0 -140
6 -244 20 -323 2 -14 6 -43 10 -65 6 -43 39 -205 60 -298 13 -58 13 -59 -15
-104 -78 -122 -79 -249 -4 -369 42 -67 93 -106 183 -141 23 -9 25 -16 27 -74
3 -94 14 -186 30 -238 8 -25 14 -47 14 -48 0 -4 -54 7 -225 44 -115 25 -176
33 -215 30 -151 -13 -267 -134 -276 -286 -2 -36 -3 -84 -4 -106 l0 -40 -47 -2
c-116 -6 -199 -61 -259 -173 -16 -30 -19 -58 -19 -205 1 -192 6 -214 76 -290
46 -50 120 -85 189 -88 27 -2 52 -5 55 -8 3 -3 6 -201 8 -440 l2 -434 27 -50
c60 -111 123 -150 308 -189 69 -15 134 -29 145 -31 39 -9 359 -78 580 -126 77
-17 147 -32 155 -34 8 -2 51 -10 94 -19 44 -9 82 -18 85 -20 3 -2 22 -7 41
-10 19 -3 98 -19 174 -36 133 -29 149 -31 357 -30 120 1 233 6 251 11 18 5
141 32 273 59 132 28 249 53 260 55 11 3 83 19 160 35 77 17 167 37 200 45 33
7 74 16 90 19 17 4 41 9 55 12 14 3 36 7 50 10 13 3 61 14 106 24 45 11 97 22
116 25 18 3 40 8 48 10 8 2 26 6 40 9 186 32 287 138 297 310 6 113 -1 143
-40 166 -31 19 -32 22 -33 89 -1 68 -1 69 32 84 40 19 45 44 43 212 0 66 0
149 0 185 l1 65 53 1 c103 3 197 65 249 164 20 40 23 61 26 195 3 136 2 156
-19 209 -42 113 -149 189 -266 189 -43 0 -43 0 -43 36 -1 173 -24 247 -97 316
-100 95 -183 102 -462 39 -107 -24 -196 -42 -198 -40 -2 2 3 23 11 47 22 67
33 155 35 290 1 21 9 28 51 43 86 31 173 125 201 218 17 57 12 149 -11 210
-35 93 -103 158 -211 201 -36 15 -36 15 -38 79 -1 35 -3 75 -6 88 -2 14 -6 68
-10 120 -3 52 -8 109 -10 125 -16 127 -16 164 2 182 82 84 206 253 268 367
112 209 112 360 -3 436 -45 30 -62 34 -134 32 -39 -1 -158 -53 -179 -78 -21
-25 -34 -15 -36 29 -4 85 -54 156 -129 182 -23 8 -68 13 -109 11 -86 -4 -174
-42 -252 -111 -28 -25 -54 -45 -56 -45 -3 0 -8 14 -12 31 -4 16 -23 47 -43 68
-55 57 -136 75 -215 47z"/>
</g>
</svg>
